<svg xmlns:xlink="http://www.w3.org/1999/xlink" width="75ex" height="10.509ex" style="font-size: 15px; vertical-align: -8.338ex; max-width: 450;" viewBox="0 -934.9 32291.5 4524.8" role="img" focusable="false" xmlns="http://www.w3.org/2000/svg">
<defs>
<path stroke-width="1" id="E1-MJMATHI-64" d="M366 683Q367 683 438 688T511 694Q523 694 523 686Q523 679 450 384T375 83T374 68Q374 26 402 26Q411 27 422 35Q443 55 463 131Q469 151 473 152Q475 153 483 153H487H491Q506 153 506 145Q506 140 503 129Q490 79 473 48T445 8T417 -8Q409 -10 393 -10Q359 -10 336 5T306 36L300 51Q299 52 296 50Q294 48 292 46Q233 -10 172 -10Q117 -10 75 30T33 157Q33 205 53 255T101 341Q148 398 195 420T280 442Q336 442 364 400Q369 394 369 396Q370 400 396 505T424 616Q424 629 417 632T378 637H357Q351 643 351 645T353 664Q358 683 366 683ZM352 326Q329 405 277 405Q242 405 210 374T160 293Q131 214 119 129Q119 126 119 118T118 106Q118 61 136 44T179 26Q233 26 290 98L298 109L352 326Z"></path>
<path stroke-width="1" id="E1-MJMAIN-28" d="M94 250Q94 319 104 381T127 488T164 576T202 643T244 695T277 729T302 750H315H319Q333 750 333 741Q333 738 316 720T275 667T226 581T184 443T167 250T184 58T225 -81T274 -167T316 -220T333 -241Q333 -250 318 -250H315H302L274 -226Q180 -141 137 -14T94 250Z"></path>
<path stroke-width="1" id="E1-MJMATHI-66" d="M118 -162Q120 -162 124 -164T135 -167T147 -168Q160 -168 171 -155T187 -126Q197 -99 221 27T267 267T289 382V385H242Q195 385 192 387Q188 390 188 397L195 425Q197 430 203 430T250 431Q298 431 298 432Q298 434 307 482T319 540Q356 705 465 705Q502 703 526 683T550 630Q550 594 529 578T487 561Q443 561 443 603Q443 622 454 636T478 657L487 662Q471 668 457 668Q445 668 434 658T419 630Q412 601 403 552T387 469T380 433Q380 431 435 431Q480 431 487 430T498 424Q499 420 496 407T491 391Q489 386 482 386T428 385H372L349 263Q301 15 282 -47Q255 -132 212 -173Q175 -205 139 -205Q107 -205 81 -186T55 -132Q55 -95 76 -78T118 -61Q162 -61 162 -103Q162 -122 151 -136T127 -157L118 -162Z"></path>
<path stroke-width="1" id="E1-MJMATHI-78" d="M52 289Q59 331 106 386T222 442Q257 442 286 424T329 379Q371 442 430 442Q467 442 494 420T522 361Q522 332 508 314T481 292T458 288Q439 288 427 299T415 328Q415 374 465 391Q454 404 425 404Q412 404 406 402Q368 386 350 336Q290 115 290 78Q290 50 306 38T341 26Q378 26 414 59T463 140Q466 150 469 151T485 153H489Q504 153 504 145Q504 144 502 134Q486 77 440 33T333 -11Q263 -11 227 52Q186 -10 133 -10H127Q78 -10 57 16T35 71Q35 103 54 123T99 143Q142 143 142 101Q142 81 130 66T107 46T94 41L91 40Q91 39 97 36T113 29T132 26Q168 26 194 71Q203 87 217 139T245 247T261 313Q266 340 266 352Q266 380 251 392T217 404Q177 404 142 372T93 290Q91 281 88 280T72 278H58Q52 284 52 289Z"></path>
<path stroke-width="1" id="E1-MJMAIN-29" d="M60 749L64 750Q69 750 74 750H86L114 726Q208 641 251 514T294 250Q294 182 284 119T261 12T224 -76T186 -143T145 -194T113 -227T90 -246Q87 -249 86 -250H74Q66 -250 63 -250T58 -247T55 -238Q56 -237 66 -225Q221 -64 221 250T66 725Q56 737 55 738Q55 746 60 749Z"></path>
<path stroke-width="1" id="E1-MJMAIN-2C" d="M78 35T78 60T94 103T137 121Q165 121 187 96T210 8Q210 -27 201 -60T180 -117T154 -158T130 -185T117 -194Q113 -194 104 -185T95 -172Q95 -168 106 -156T131 -126T157 -76T173 -3V9L172 8Q170 7 167 6T161 3T152 1T140 0Q113 0 96 17Z"></path>
<path stroke-width="1" id="E1-MJMAIN-2B" d="M56 237T56 250T70 270H369V420L370 570Q380 583 389 583Q402 583 409 568V270H707Q722 262 722 250T707 230H409V-68Q401 -82 391 -82H389H387Q375 -82 369 -68V230H70Q56 237 56 250Z"></path>
<path stroke-width="1" id="E1-MJMAIN-226A" d="M639 -48Q639 -54 634 -60T619 -67H618Q612 -67 536 -26Q430 33 329 88Q61 235 59 239Q56 243 56 250T59 261Q62 266 336 415T615 567L619 568Q622 567 625 567Q639 562 639 548Q639 540 633 534Q632 532 374 391L117 250L374 109Q632 -32 633 -34Q639 -40 639 -48ZM944 -48Q944 -54 939 -60T924 -67H923Q917 -67 841 -26Q735 33 634 88Q366 235 364 239Q361 243 361 250T364 261Q367 266 641 415T920 567L924 568Q927 567 930 567Q944 562 944 548Q944 540 938 534Q937 532 679 391L422 250L679 109Q937 -32 938 -34Q944 -40 944 -48Z"></path>
<path stroke-width="1" id="E1-MJMAIN-2212" d="M84 237T84 250T98 270H679Q694 262 694 250T679 230H98Q84 237 84 250Z"></path>
<path stroke-width="1" id="E1-MJMATHI-73" d="M131 289Q131 321 147 354T203 415T300 442Q362 442 390 415T419 355Q419 323 402 308T364 292Q351 292 340 300T328 326Q328 342 337 354T354 372T367 378Q368 378 368 379Q368 382 361 388T336 399T297 405Q249 405 227 379T204 326Q204 301 223 291T278 274T330 259Q396 230 396 163Q396 135 385 107T352 51T289 7T195 -10Q118 -10 86 19T53 87Q53 126 74 143T118 160Q133 160 146 151T160 120Q160 94 142 76T111 58Q109 57 108 57T107 55Q108 52 115 47T146 34T201 27Q237 27 263 38T301 66T318 97T323 122Q323 150 302 164T254 181T195 196T148 231Q131 256 131 289Z"></path>
<path stroke-width="1" id="E1-MJMAIN-226B" d="M55 539T55 547T60 561T74 567Q81 567 207 498Q297 449 365 412Q633 265 636 261Q639 255 639 250Q639 241 626 232Q614 224 365 88Q83 -65 79 -66Q76 -67 73 -67Q65 -67 60 -61T55 -47Q55 -39 61 -33Q62 -33 95 -15T193 39T320 109L321 110H322L323 111H324L325 112L326 113H327L329 114H330L331 115H332L333 116L334 117H335L336 118H337L338 119H339L340 120L341 121H342L343 122H344L345 123H346L347 124L348 125H349L351 126H352L353 127H354L355 128L356 129H357L358 130H359L360 131H361L362 132L363 133H364L365 134H366L367 135H368L369 136H370L371 137L372 138H373L374 139H375L376 140L378 141L576 251Q63 530 62 533Q55 539 55 547ZM360 539T360 547T365 561T379 567Q386 567 512 498Q602 449 670 412Q938 265 941 261Q944 255 944 250Q944 241 931 232Q919 224 670 88Q388 -65 384 -66Q381 -67 378 -67Q370 -67 365 -61T360 -47Q360 -39 366 -33Q367 -33 400 -15T498 39T625 109L626 110H627L628 111H629L630 112L631 113H632L634 114H635L636 115H637L638 116L639 117H640L641 118H642L643 119H644L645 120L646 121H647L648 122H649L650 123H651L652 124L653 125H654L656 126H657L658 127H659L660 128L661 129H662L663 130H664L665 131H666L667 132L668 133H669L670 134H671L672 135H673L674 136H675L676 137L677 138H678L679 139H680L681 140L683 141L881 251Q368 530 367 533Q360 539 360 547Z"></path>
</defs>
<g stroke="currentColor" fill="currentColor" stroke-width="0" transform="matrix(1 0 0 -1 0 0)">
<g transform="translate(9165,0)">
 <use xlink:href="#E1-MJMATHI-64" x="0" y="0"></use>
 <use xlink:href="#E1-MJMAIN-28" x="523" y="0"></use>
 <use xlink:href="#E1-MJMATHI-66" x="913" y="0"></use>
 <use xlink:href="#E1-MJMAIN-28" x="1463" y="0"></use>
 <use xlink:href="#E1-MJMATHI-78" x="1853" y="0"></use>
 <use xlink:href="#E1-MJMAIN-29" x="2425" y="0"></use>
 <use xlink:href="#E1-MJMAIN-2C" x="2815" y="0"></use>
 <use xlink:href="#E1-MJMATHI-66" x="3260" y="0"></use>
 <use xlink:href="#E1-MJMAIN-28" x="3810" y="0"></use>
<g transform="translate(4200,0)">
 <use xlink:href="#E1-MJMATHI-78" x="0" y="0"></use>
 <use transform="scale(0.707)" xlink:href="#E1-MJMAIN-2B" x="809" y="583"></use>
</g>
 <use xlink:href="#E1-MJMAIN-29" x="5423" y="0"></use>
 <use xlink:href="#E1-MJMAIN-29" x="5812" y="0"></use>
 <use xlink:href="#E1-MJMAIN-226A" x="6479" y="0"></use>
 <use xlink:href="#E1-MJMATHI-64" x="7758" y="0"></use>
 <use xlink:href="#E1-MJMAIN-28" x="8281" y="0"></use>
 <use xlink:href="#E1-MJMATHI-66" x="8671" y="0"></use>
 <use xlink:href="#E1-MJMAIN-28" x="9221" y="0"></use>
 <use xlink:href="#E1-MJMATHI-78" x="9611" y="0"></use>
 <use xlink:href="#E1-MJMAIN-29" x="10183" y="0"></use>
 <use xlink:href="#E1-MJMAIN-2C" x="10573" y="0"></use>
 <use xlink:href="#E1-MJMATHI-66" x="11018" y="0"></use>
 <use xlink:href="#E1-MJMAIN-28" x="11568" y="0"></use>
<g transform="translate(11958,0)">
 <use xlink:href="#E1-MJMATHI-78" x="0" y="0"></use>
 <use transform="scale(0.707)" xlink:href="#E1-MJMAIN-2212" x="809" y="583"></use>
</g>
 <use xlink:href="#E1-MJMAIN-29" x="13181" y="0"></use>
 <use xlink:href="#E1-MJMAIN-29" x="13570" y="0"></use>
</g>
<g transform="translate(15571,-1543)">
<text font-family="monospace" stroke="none" transform="scale(71.759) matrix(1 0 0 -1 0 0)">或</text>
</g>
<g transform="translate(9219,-3230)">
 <use xlink:href="#E1-MJMATHI-73" x="0" y="0"></use>
 <use xlink:href="#E1-MJMAIN-28" x="469" y="0"></use>
 <use xlink:href="#E1-MJMATHI-66" x="859" y="0"></use>
 <use xlink:href="#E1-MJMAIN-28" x="1409" y="0"></use>
 <use xlink:href="#E1-MJMATHI-78" x="1799" y="0"></use>
 <use xlink:href="#E1-MJMAIN-29" x="2371" y="0"></use>
 <use xlink:href="#E1-MJMAIN-2C" x="2761" y="0"></use>
 <use xlink:href="#E1-MJMATHI-66" x="3206" y="0"></use>
 <use xlink:href="#E1-MJMAIN-28" x="3756" y="0"></use>
<g transform="translate(4146,0)">
 <use xlink:href="#E1-MJMATHI-78" x="0" y="0"></use>
 <use transform="scale(0.707)" xlink:href="#E1-MJMAIN-2B" x="809" y="583"></use>
</g>
 <use xlink:href="#E1-MJMAIN-29" x="5369" y="0"></use>
 <use xlink:href="#E1-MJMAIN-29" x="5758" y="0"></use>
 <use xlink:href="#E1-MJMAIN-226B" x="6425" y="0"></use>
 <use xlink:href="#E1-MJMATHI-73" x="7704" y="0"></use>
 <use xlink:href="#E1-MJMAIN-28" x="8173" y="0"></use>
 <use xlink:href="#E1-MJMATHI-66" x="8563" y="0"></use>
 <use xlink:href="#E1-MJMAIN-28" x="9113" y="0"></use>
 <use xlink:href="#E1-MJMATHI-78" x="9503" y="0"></use>
 <use xlink:href="#E1-MJMAIN-29" x="10075" y="0"></use>
 <use xlink:href="#E1-MJMAIN-2C" x="10465" y="0"></use>
 <use xlink:href="#E1-MJMATHI-66" x="10910" y="0"></use>
 <use xlink:href="#E1-MJMAIN-28" x="11460" y="0"></use>
<g transform="translate(11850,0)">
 <use xlink:href="#E1-MJMATHI-78" x="0" y="0"></use>
 <use transform="scale(0.707)" xlink:href="#E1-MJMAIN-2212" x="809" y="583"></use>
</g>
 <use xlink:href="#E1-MJMAIN-29" x="13073" y="0"></use>
 <use xlink:href="#E1-MJMAIN-29" x="13462" y="0"></use>
</g>
</g>
</svg>